<svg id="Camada_1" data-name="Camada 1" xmlns="http://www.w3.org/2000/svg" width="31" height="33.48" viewBox="0 0 31 33.48"><defs><style>.cls-1{fill:#999;}.cls-1,.cls-2,.cls-3{fill-rule:evenodd;}.cls-2{fill:#ff385c;}.cls-3{fill:#fff;}</style></defs><title>Sem título-1</title><path class="cls-1" d="M15.12,4.51a17.44,17.44,0,0,1,4.36.59v.47a6.72,6.72,0,0,0,6.72,6.72A8.87,8.87,0,0,0,28,12.05a15.71,15.71,0,0,1,1.77,7.07A14.62,14.62,0,1,1,15.12,4.51Z" transform="translate(-0.5 -0.26)"/><path class="cls-2" d="M26.2,10.87a5.36,5.36,0,0,0,5.3-5.3A5.36,5.36,0,0,0,26.2.26a5.31,5.31,0,1,0,0,10.61Z" transform="translate(-0.5 -0.26)"/><path class="cls-3" d="M17.94,22.3a12.49,12.49,0,0,1,6.61,4,12.91,12.91,0,0,1-4,3.54,13.37,13.37,0,0,1-5.66,1.29,11.67,11.67,0,0,1-9.55-5.42,14.81,14.81,0,0,1,5.9-3.42,6,6,0,0,1-3-5.18,6.29,6.29,0,0,1,6.25-6.25,6.2,6.2,0,0,1,6.13,6.25,6.33,6.33,0,0,1-2.72,5.18Z" transform="translate(-0.5 -0.26)"/></svg>