<svg id="Camada_1" data-name="Camada 1" xmlns="http://www.w3.org/2000/svg" width="24" height="20.02" viewBox="0 0 24 20.02"><defs><style>.cls-1{fill:#b0b0b0;}</style></defs><title>Sem título-1</title><path class="cls-1" d="M10.47,7a6.89,6.89,0,0,1,4,1.39A5.8,5.8,0,0,1,16,10.08a6.1,6.1,0,0,1,1.51-1.69,6.89,6.89,0,0,1,4-1.39,6.45,6.45,0,0,1,4.56,1.89A6.52,6.52,0,0,1,28,13.48v0h0c0,2.51-2.55,5.88-5.28,8.62S17,27,16.13,27h-.24a.47.47,0,0,1-.17,0c-1-.23-3.86-2.29-6.44-4.87C6.55,19.38,4,16,4,13.5v-.06A6.54,6.54,0,0,1,5.91,8.89,6.47,6.47,0,0,1,10.47,7Zm3.29,2.35a5.56,5.56,0,0,0-3.29-1.14,5.28,5.28,0,0,0-5.26,5.24v.05c0,2.14,2.37,5.22,4.92,7.78s5.09,4.47,5.73,4.54h0a.41.41,0,0,1,.22,0h0c.62-.05,3.22-2,5.73-4.54s4.92-5.64,4.92-7.78h0v0a5.37,5.37,0,0,0-1.57-3.73,5.23,5.23,0,0,0-3.71-1.54,5.56,5.56,0,0,0-3.29,1.14,4.06,4.06,0,0,0-1.65,2.55.59.59,0,0,1-.49.5.61.61,0,0,1-.69-.5,4,4,0,0,0-1.65-2.55Zm2.11,16.47Z" transform="translate(-4 -7)"/></svg>