<svg id="Camada_1" data-name="Camada 1" xmlns="http://www.w3.org/2000/svg" widith="9" height="18" viewBox="0 0 8.98 18"><path d="M826.1,541.68c-.31.76-.6,1.5-.89,2.23-.08.19-.11.44-.25.55s-.41,0-.63,0h-1.41c-.15,0-.19,0-.19.2v8.55c0,.28,0,.25-.25.25H819.6c-.24,0-.24,0-.24-.24v-8.53c0-.18,0-.23-.22-.23h-1.86c-.12,0-.16,0-.16-.16v-2.5c0-.14,0-.16.17-.16h1.88c.15,0,.19,0,.19-.18,0-.87,0-1.75,0-2.62a3.38,3.38,0,0,1,2.54-3.28,2.84,2.84,0,0,1,.82-.1h2.08c.13,0,.18,0,.18.17,0,.83,0,1.65,0,2.48,0,.13,0,.17-.17.17h-.91a1.12,1.12,0,0,0-1.17,1.17c0,.67,0,1.35,0,2,0,.14,0,.17.18.17h3.19Z" transform="translate(-817.12 -535.49)"/></svg>