<svg id="Camada_1" data-name="Camada 1" xmlns="http://www.w3.org/2000/svg" width="18" height="18" viewBox="0 0 30 30"><path d="M848.23,568.5H822.77a3.36,3.36,0,0,1-2.27-2.27V540.77a3.36,3.36,0,0,1,2.27-2.27h25.46a3.36,3.36,0,0,1,2.27,2.27v25.46A3.36,3.36,0,0,1,848.23,568.5Zm-12.8-3.09h10.93c.9,0,1-.15,1-1v-11.2c0-1,0-1.06-1.09-1.06h-.14c-2,0-1.6-.05-1.63,1.57a9,9,0,0,1-16.2,5.37,8.83,8.83,0,0,1-1.89-6.1c0-.65-.21-.89-.84-.84-.37,0-.75,0-1.13,0-.84,0-.9.07-.9.92v11.2c0,1.08.11,1.19,1.18,1.19Zm.06-6a5.9,5.9,0,1,0-5.89-5.94A5.87,5.87,0,0,0,835.49,559.4Zm9.81-13.48h1.32c.48,0,.77-.23.77-.72,0-1,0-2,0-2.92a.61.61,0,0,0-.67-.67H843.8a.64.64,0,0,0-.71.7c0,1,0,1.9,0,2.86a.71.71,0,0,0,.76.75Z" transform="translate(-820.5 -538.5)"/></svg>