<svg id="Camada_1" data-name="Camada 1" xmlns="http://www.w3.org/2000/svg" width="16" height="16" viewBox="0 0 16 16"><title>Sem título-1</title><path d="M16,9a8,8,0,1,1-5.67,2.34A8,8,0,0,1,16,9ZM9.29,16.37h3.18a15,15,0,0,1,.88-4.81,6.06,6.06,0,0,1,.45-.92,6.65,6.65,0,0,0-2.56,1.6,6.74,6.74,0,0,0-2,4.13Zm4.45,0h4.52a13.09,13.09,0,0,0-.8-4.35c-.41-1.08-.94-1.75-1.45-1.75S15,10.94,14.54,12a13.09,13.09,0,0,0-.8,4.35Zm5.79,0h3.18a6.74,6.74,0,0,0-1.95-4.13,6.65,6.65,0,0,0-2.56-1.6,6.06,6.06,0,0,1,.45.92,14.75,14.75,0,0,1,.88,4.81Zm3.18,1.26H19.53a14.75,14.75,0,0,1-.88,4.81,6.06,6.06,0,0,1-.45.92,6.65,6.65,0,0,0,2.56-1.6,6.74,6.74,0,0,0,1.95-4.13Zm-4.45,0H13.74a13.09,13.09,0,0,0,.8,4.35c.41,1.08.94,1.75,1.47,1.75s1-.67,1.45-1.75a13.09,13.09,0,0,0,.8-4.35Zm-5.79,0H9.29a6.74,6.74,0,0,0,2,4.13,6.65,6.65,0,0,0,2.56,1.6,6.06,6.06,0,0,1-.45-.92,15,15,0,0,1-.88-4.81Z" transform="translate(-8 -9)"/></svg>