<svg id="Camada_1" data-name="Camada 1" xmlns="http://www.w3.org/2000/svg" width="24" height="24" viewBox="0 0 24 24"><defs><style>.cls-1{fill:#b0b0b0;}</style></defs><title>Sem título-1</title><path class="cls-1" d="M16,5A12,12,0,1,1,7.53,8.53,11.95,11.95,0,0,1,16,5ZM7.61,23.64a10.55,10.55,0,0,1,3.31-2.7,11.38,11.38,0,0,1,1.88-.76,5.7,5.7,0,0,1-1-.75,5.53,5.53,0,0,1,0-7.82,5.53,5.53,0,0,1,7.82,0,5.53,5.53,0,0,1-1,8.58,10.17,10.17,0,0,1,2,.84A10.74,10.74,0,0,1,24.16,24a10.69,10.69,0,1,0-16.55-.31ZM23.23,24.9a9,9,0,0,0-3.08-2.73,9.14,9.14,0,0,0-4.39-1.11A9.17,9.17,0,0,0,8.5,24.63a10.69,10.69,0,0,0,14.73.27ZM18.75,12.52a4.24,4.24,0,1,0,1.24,3,4.22,4.22,0,0,0-1.24-3Z" transform="translate(-4.01 -5.01)"/></svg>