<svg id="Camada_1" data-name="Camada 1" xmlns="http://www.w3.org/2000/svg" width="103" height="32.19" viewBox="0 0 103 32.19"><defs><style>.cls-1{fill:#ff355d;fill-rule:evenodd;}</style></defs><title>logo-airbnb</title><path class="cls-1" d="M12.08,17.88a3.42,3.42,0,0,1,6.49-1.77,5.56,5.56,0,0,1-.23,3.9c0,.23-.12.35-.12.47a19.6,19.6,0,0,1-2.6,4.25l-.24.24c0-.24,0-.12-.12-.24C13.85,23,12.08,20,12.08,17.88ZM10,17.29a7.88,7.88,0,0,0,.59,3.31,17.87,17.87,0,0,0,2.84,5.08c.23.35.47.59.7.94a12.26,12.26,0,0,1-1.3,1.3,13.31,13.31,0,0,1-1.41,1.18,6.83,6.83,0,0,1-3.66,1.54A4.46,4.46,0,0,1,3.93,29.1a4.72,4.72,0,0,1-1.42-3.31,9.46,9.46,0,0,1,1.42-4.13l1.65-3.42c0-.12.12-.24.12-.48L12.55,4.3a3.76,3.76,0,0,1,1.77-1.54,3.54,3.54,0,0,1,3.07.36,7.2,7.2,0,0,1,2,3c.12.12.12.23.24.35l1.89,3.66,3.18,6.74L26.6,20.6a1.71,1.71,0,0,0,.24.71c.12.35.24.47.35.82.71,1.42,1.19,2,1.19,3.78a4,4,0,0,1-.59,2,4.26,4.26,0,0,1-1.07,1.42.84.84,0,0,1-.35.23c-.12.12-.12.24-.36.24-2.24,1.42-4.6.71-6.61-.83l-.59-.47c-.12-.12-.12-.12-.24-.12L16.8,26.62c.12-.12.24-.35.35-.47a1.74,1.74,0,0,0,.36-.47,12.46,12.46,0,0,0,1.89-3,10,10,0,0,0,1.53-5.31,5.29,5.29,0,0,0-4-5,5.52,5.52,0,0,0-3.9.35,8.17,8.17,0,0,0-.83.47l-.7.48-1.07,1.53a5.7,5.7,0,0,0-.47,2ZM.5,25.44a6.46,6.46,0,0,0,.71,3.31,6,6,0,0,0,.94,1.42A5.87,5.87,0,0,0,3,31a4.8,4.8,0,0,0,1.65,1c2.84,1.41,6,.23,8.39-1.54l.36-.35c.23-.12.23-.24.47-.36l.59-.59c.23-.23.71-.82.94-1.06l1.77,1.77A8.29,8.29,0,0,0,18.81,31a7.64,7.64,0,0,0,7.44,1.06,5.12,5.12,0,0,1,1.06-.59c.36-.35.59-.47,1-.82a1.73,1.73,0,0,0,.35-.47.88.88,0,0,0,.47-.48,8,8,0,0,0,1.19-3l.11-1.06-.11-1.18A9,9,0,0,0,29.44,22L25.9,14.46c-.12-.12-.12-.36-.24-.6l-4-7.79a8.59,8.59,0,0,0-.59-1.18A8.24,8.24,0,0,0,18.1,1.11,5.09,5.09,0,0,0,13.38.87c-.36.12-.48.24-.83.36A6.31,6.31,0,0,0,10.3,3.94a5.08,5.08,0,0,1-.47.83L5.22,14c-.59,1.3-1.29,2.84-2,4.14L1.68,21.54A10.75,10.75,0,0,0,.5,25.44Z" transform="translate(-0.5 -0.41)"/><path class="cls-1" d="M70.78,21.78a3,3,0,0,1-2-.47c-.23-.12-.94-.71-.94-.95V16.23a.65.65,0,0,1,.23-.48c.12,0,.24-.11.36-.23a3.18,3.18,0,0,1,.94-.47A3.4,3.4,0,0,1,74,18.12a3.16,3.16,0,0,1-.71,2.36l-.35.47c-.12.12-.24.12-.24.24a6,6,0,0,1-1.89.59Zm-6.14,2.6h2.72c.47,0,.47-.71.47-.95l.12.12a7.53,7.53,0,0,0,1.06.83,8.82,8.82,0,0,0,1.89.35A6.54,6.54,0,0,0,74,23.9c.12-.11.24-.11.47-.23s.36-.36.59-.59a3.58,3.58,0,0,0,1-.95c.23-.35.35-.71.59-1.06A2.82,2.82,0,0,0,76.92,20a5.86,5.86,0,0,0,.24-1.42v-.35a6.52,6.52,0,0,0-.47-2.37,7.48,7.48,0,0,0-.48-1.06l-.47-.59a6.26,6.26,0,0,0-1.89-1.65c-1.65-.71-3.9-1-5.43.11l-.59.48V6.42H64.64Z" transform="translate(-0.5 -0.41)"/><path class="cls-1" d="M97.12,21.78a3,3,0,0,1-2-.47c-.23-.24-.94-.71-.94-.95V16.23c0-.24.83-.83,1.06-1a3.84,3.84,0,0,1,3.9.24,3.56,3.56,0,0,1-.59,5.9,5,5,0,0,1-1.42.36Zm-6,2.6h2.6c.59,0,.47-.59.47-.95a7.29,7.29,0,0,0,1.3.95,6.1,6.1,0,0,0,5.79-1.07l.7-.7a6.29,6.29,0,0,0,1.54-4,6.27,6.27,0,0,0-.83-3.54,4.3,4.3,0,0,0-.94-1.3,2.85,2.85,0,0,0-.71-.59A6,6,0,0,0,97.59,12a4.09,4.09,0,0,0-2.83.71c-.12.12-.24.24-.36.24a.25.25,0,0,1-.23.24V6.42H91.1Z" transform="translate(-0.5 -0.41)"/><path class="cls-1" d="M40,18.47a3.43,3.43,0,0,1,3.55-3.66,3.49,3.49,0,0,1,1.65.47c.35.12,1.06.71,1.06,1.07v4a3.06,3.06,0,0,1-2.48,1.42,3.75,3.75,0,0,1-2.83-1c-.12-.23-.24-.23-.36-.47s-.23-.35-.35-.59a3.63,3.63,0,0,1-.24-1.3Zm-3.19-.35A6.14,6.14,0,0,0,37.94,22a5.21,5.21,0,0,0,1.54,1.66c.35.12.59.35.94.47a5.4,5.4,0,0,0,5.2-.24l.24-.23c.12-.12.23-.12.35-.24,0,1.18-.23.95,3.07.95v-12a.11.11,0,0,0-.11-.12H46.8a.91.91,0,0,0-.59.24c-.12.12,0,.47,0,.71A7.31,7.31,0,0,0,45,12.33a5.73,5.73,0,0,0-5.67.83,6.28,6.28,0,0,0-2.6,5Z" transform="translate(-0.5 -0.41)"/><path class="cls-1" d="M81.29,13.16c0-1.19,0-.95-2.71-.95-.12,0-.12,0-.12.12v12h3.07V16a3.32,3.32,0,0,1,2.36-1.18c1,0,1.77,0,2.25,1.06a6.8,6.8,0,0,1,.23,2.72v5.55c0,.12,0,.24.12.24h3a.12.12,0,0,0,.12-.12V17.64a7.51,7.51,0,0,0-.59-3.3A4.57,4.57,0,0,0,85,12a5.45,5.45,0,0,0-2.37.36,4.91,4.91,0,0,0-1.3.83Z" transform="translate(-0.5 -0.41)"/><path class="cls-1" d="M59.21,13.16c0-.71,0-.95-.71-.95H56.25c-.12,0-.12,0-.12.12V24.26c0,.12,0,.12.12.12h3c.11,0,.11-.24.11-.59V16c0-.12.24-.35.36-.47a2.7,2.7,0,0,1,1.06-.47,3.19,3.19,0,0,1,2.36-.12h.36V12.09A7.2,7.2,0,0,0,61.8,12a3.87,3.87,0,0,0-2.24.95c-.12.12-.24.12-.35.24Z" transform="translate(-0.5 -0.41)"/><path class="cls-1" d="M51.17,12.33V24.26c0,.12,0,.12.12.12h3v-12c0-.12,0-.12-.11-.12H51.29c-.12,0-.12,0-.12.12Z" transform="translate(-0.5 -0.41)"/><path class="cls-1" d="M50.58,8.55a2.13,2.13,0,0,0,3.55,1.53,2.09,2.09,0,0,0-1.42-3.66A2.29,2.29,0,0,0,51.17,7a2.29,2.29,0,0,0-.59,1.54Z" transform="translate(-0.5 -0.41)"/></svg>