<svg id="Camada_1" data-name="Camada 1" xmlns="http://www.w3.org/2000/svg" width="18" height="18" viewBox="0 0 18 14.81"><path d="M819.61,549.36a7.76,7.76,0,0,0,5.3-1.52,3.9,3.9,0,0,1-3.16-2l-.12-.25c-.1-.23-.07-.36.24-.33a2.19,2.19,0,0,0,1.13-.13,3.8,3.8,0,0,1-2.49-2.09,3.63,3.63,0,0,1-.32-1.17c0-.29,0-.43.37-.28a2.13,2.13,0,0,0,1.1.25c-.25-.28-.47-.49-.65-.73a3.61,3.61,0,0,1-.55-3.65c.2-.51.28-.53.65-.13a10.54,10.54,0,0,0,6.44,3.4l.45,0c.29,0,.4-.11.37-.4a3.7,3.7,0,0,1,2.73-4,3.63,3.63,0,0,1,3.35.68,1,1,0,0,0,1,.2,12,12,0,0,0,1.74-.72,4,4,0,0,1-1.43,2,11.11,11.11,0,0,0,1.82-.41,3.56,3.56,0,0,1-1,1.25,1.71,1.71,0,0,0-.73,1.51,10.54,10.54,0,0,1-9.4,10.13,10.94,10.94,0,0,1-6.47-1.3C819.85,549.6,819.68,549.56,819.61,549.36Z" transform="translate(-819.61 -536.22)"/></svg>